<?xml version="1.0" encoding="UTF-8"?>
<svg version="1.1" xmlns="http://www.w3.org/2000/svg" width="913" height="564">
<path d="M0 0 C301.29 0 602.58 0 913 0 C913 186.12 913 372.24 913 564 C611.71 564 310.42 564 0 564 C0 377.88 0 191.76 0 0 Z " fill="#000000" transform="translate(0,0)"/>
<path d="M0 0 C2.65625 0.328125 2.65625 0.328125 4.4375 2.03125 C8.53120975 8.09738353 12.5400131 14.2140516 16.51953125 20.35546875 C23.12781037 30.53698268 29.7941288 40.67961791 36.4777832 50.81176758 C38.35381982 53.65589112 40.22873751 56.50074989 42.10351562 59.34570312 C47.26673794 67.17812584 52.43269868 75.00840876 57.64453125 82.80859375 C64.83883856 93.57619106 71.94065876 104.40513252 79.06103516 115.22167969 C87.82807752 128.54514992 87.82807752 128.54514992 96.65625 141.828125 C103.84742616 152.5886987 110.94482688 163.4114643 118.06103516 174.22167969 C131.44869999 194.62627581 131.44869999 194.62627581 145.1328125 214.83203125 C145.82246094 215.83943359 146.51210938 216.84683594 147.22265625 217.88476562 C148.62393116 219.93083971 150.03583397 221.96966653 151.45703125 224.00195312 C152.13378906 224.99775391 152.81054688 225.99355469 153.5078125 227.01953125 C154.11447754 227.89810791 154.72114258 228.77668457 155.34619141 229.68188477 C157.02285181 233.0686388 157.31998066 234.57532101 156.65625 238.328125 C154.90589838 241.68124997 152.75750353 244.71840258 150.578125 247.8046875 C149.28363759 249.68983421 147.99004652 251.57559666 146.69726562 253.46191406 C146.02703369 254.43116821 145.35680176 255.40042236 144.66625977 256.39904785 C141.47625363 261.04766909 138.38815863 265.76196662 135.296875 270.4765625 C134.06668706 272.34523698 132.83621741 274.21372603 131.60546875 276.08203125 C130.37234143 277.95569336 129.13926872 279.82939142 127.90625 281.703125 C114.02179124 302.79925628 114.02179124 302.79925628 108.671875 310.8046875 C102.11710176 320.61303532 95.64272086 330.47454224 89.15625 340.328125 C75.03910356 361.77344923 75.03910356 361.77344923 68.4831543 371.58349609 C62.32895302 380.80169335 56.25055396 390.07028207 50.15625 399.328125 C42.43524061 411.05709236 34.70763372 422.78077282 26.90582275 434.45617676 C25.05968126 437.22182711 23.21836371 439.99067904 21.37692261 442.75946045 C19.43792306 445.67484192 17.49766296 448.58938346 15.55737305 451.50390625 C14.56511736 452.99485524 13.5732682 454.48607485 12.58178711 455.97753906 C11.12720587 458.16542549 9.67117524 460.35234083 8.21484375 462.5390625 C7.54780678 463.54348892 7.54780678 463.54348892 6.86729431 464.56820679 C3.77011973 469.21425527 3.77011973 469.21425527 2.65625 470.328125 C0.3203125 470.66796875 0.3203125 470.66796875 -2.34375 470.328125 C-7.56182275 465.23114677 -11.25162406 457.94209927 -15.20703125 451.80078125 C-21.41600588 442.18445953 -27.71089874 432.62533014 -34.0144043 423.07080078 C-35.908242 420.20010552 -37.80088462 417.32862516 -39.69335938 414.45703125 C-44.89174383 406.57188237 -50.0927939 398.68881087 -55.33984375 390.8359375 C-62.53155647 380.07225385 -69.63074063 369.24719538 -76.74853516 358.43457031 C-82.99442704 348.9475061 -89.24196456 339.46218786 -95.55310059 330.01837158 C-100.89601382 322.01538925 -106.17519465 313.97023338 -111.46517944 305.93222046 C-120.09223798 292.82520752 -128.72010708 279.71889506 -137.42999268 266.66671753 C-138.51247328 265.04377655 -139.59292477 263.41948277 -140.67333984 261.79516602 C-143.62715573 257.36086873 -146.59722997 252.94337138 -149.65234375 248.578125 C-150.13743408 247.87727783 -150.62252441 247.17643066 -151.12231445 246.4543457 C-151.97203088 245.23084649 -152.83250363 244.01468429 -153.70776367 242.80932617 C-156.2692513 239.10618657 -156.87025694 236.78310744 -156.34375 232.328125 C-155.06646011 229.61038585 -153.39237405 227.21545562 -151.67578125 224.7578125 C-150.92798653 223.65090561 -150.92798653 223.65090561 -150.16508484 222.52163696 C-148.50772156 220.07356321 -146.831827 217.63875998 -145.15625 215.203125 C-143.38700459 212.59808427 -141.62279 209.98967854 -139.85848999 207.38128662 C-138.61975714 205.55094932 -137.37934586 203.72174697 -136.13735962 201.89361572 C-128.92953424 191.27759932 -121.88860846 180.55264816 -114.84375 169.828125 C-112.48008633 166.2337694 -110.11530695 162.64014939 -107.75 159.046875 C-107.1910051 158.19747345 -106.63201019 157.3480719 -106.05607605 156.47293091 C-102.85500629 151.61209672 -99.64009203 146.7609599 -96.40625 141.921875 C-89.83590641 132.0900475 -83.34571188 122.20524012 -76.84375 112.328125 C-62.72660356 90.88280077 -62.72660356 90.88280077 -56.1706543 81.07275391 C-50.01645302 71.85455665 -43.93805396 62.58596793 -37.84375 53.328125 C-30.39285094 42.00948162 -22.94108133 30.69204659 -15.41259766 19.42480469 C-13.6757444 16.82505879 -11.94331698 14.22250751 -10.21484375 11.6171875 C-9.80041016 10.99328125 -9.38597656 10.369375 -8.95898438 9.7265625 C-8.13786564 8.49011837 -7.31762049 7.25309384 -6.49804688 6.015625 C-2.75471957 0.38566074 -2.75471957 0.38566074 0 0 Z " fill="#020000" transform="translate(460.34375,37.671875)"/>
<path d="M0 0 C4.62 0 9.24 0 14 0 C14 6.80643713 12.88662877 11.73230744 11.0703125 18.18359375 C8.10208361 30.37297488 7.67178807 42.77899377 7.73925781 55.25830078 C7.75015035 57.65812514 7.73919561 60.05722687 7.7265625 62.45703125 C7.72788165 64.00520996 7.73043895 65.55338823 7.734375 67.1015625 C7.73032654 67.80785797 7.72627808 68.51415344 7.72210693 69.24185181 C7.76237474 73.51274804 8.22049229 77.09591741 10 81 C11.485 81.495 11.485 81.495 13 82 C13 82.66 13 83.32 13 84 C13.66 84 14.32 84 15 84 C15 85.32 15 86.64 15 88 C15.66 88 16.32 88 17 88 C17 88.66 17 89.32 17 90 C17.66 90 18.32 90 19 90 C20.0625 92.375 20.0625 92.375 21 95 C20.67 95.66 20.34 96.32 20 97 C18.68 97 17.36 97 16 97 C15.5359375 98.423125 15.5359375 98.423125 15.0625 99.875 C14 103 14 103 13 105 C12.34 105 11.68 105 11 105 C9.19646313 112.41853464 8.69224289 119.44337416 8.75 127.0625 C8.74226563 128.08666016 8.73453125 129.11082031 8.7265625 130.16601562 C8.74254167 136.41786679 9.41376134 141.95089145 11 148 C11.66 148 12.32 148 13 148 C13.33 149.32 13.66 150.64 14 152 C14.66 152 15.32 152 16 152 C16 152.66 16 153.32 16 154 C16.61875 154.144375 17.2375 154.28875 17.875 154.4375 C20 155 20 155 22 156 C23.73868744 156.15266612 25.48247501 156.24932596 27.2265625 156.31640625 C28.15549316 156.35451416 29.08442383 156.39262207 30.04150391 156.43188477 C31.22405762 156.47498779 32.40661133 156.51809082 33.625 156.5625 C37.37875 156.706875 41.1325 156.85125 45 157 C45 167.23 45 177.46 45 188 C38.452562 188.06905501 31.90639937 188.12873504 25.35888672 188.16479492 C23.13390815 188.17983512 20.90895899 188.20027246 18.68408203 188.22631836 C15.47681394 188.26291135 12.26993955 188.2797745 9.0625 188.29296875 C8.07572266 188.30845261 7.08894531 188.32393646 6.07226562 188.33988953 C0.01003684 188.34135029 -4.49219658 187.59462755 -10 185 C-12.25072437 182.09281436 -12 180.8254082 -12 177 C-12.66 177 -13.32 177 -14 177 C-14 176.34 -14 175.68 -14 175 C-14.66 175 -15.32 175 -16 175 C-16.309375 175.94875 -16.61875 176.8975 -16.9375 177.875 C-18 181 -18 181 -19 183 C-19.66 183 -20.32 183 -21 183 C-21 183.66 -21 184.32 -21 185 C-23.31 185.33 -25.62 185.66 -28 186 C-28 186.66 -28 187.32 -28 188 C-43.84 188 -59.68 188 -76 188 C-76 177.77 -76 167.54 -76 157 C-65.375 156.625 -65.375 156.625 -62.06005859 156.52197266 C-57.00854158 156.3171689 -52.75148468 155.89136769 -48 154 C-47.34 154 -46.68 154 -46 154 C-45.67 152.68 -45.34 151.36 -45 150 C-44.34 150 -43.68 150 -43 150 C-43 149.34 -43 148.68 -43 148 C-42.34 148 -41.68 148 -41 148 C-38.8129764 133.23759069 -39.12489835 117.45308182 -43 103 C-43.66 103 -44.32 103 -45 103 C-45.33 101.68 -45.66 100.36 -46 99 C-46.99 99 -47.98 99 -49 99 C-49 97.35 -49 95.7 -49 94 C-48.01 93.505 -48.01 93.505 -47 93 C-46.505 91.515 -46.505 91.515 -46 90 C-45.01 90 -44.02 90 -43 90 C-40.22532617 81.54385117 -39.69827409 73.5276372 -39.6875 64.6875 C-39.68234375 63.66205078 -39.6771875 62.63660156 -39.671875 61.58007812 C-39.72536629 55.69985664 -40.3295638 50.63694012 -42 45 C-42.33908577 43.66811797 -42.67386698 42.33511278 -43 41 C-43.99 41 -44.98 41 -46 41 C-46.66 40.01 -47.32 39.02 -48 38 C-51.5368276 36.19806985 -54.58055673 35.71797017 -58.51953125 35.5859375 C-59.44096924 35.55032715 -60.36240723 35.5147168 -61.31176758 35.47802734 C-63.04463013 35.42702881 -63.04463013 35.42702881 -64.8125 35.375 C-68.504375 35.25125 -72.19625 35.1275 -76 35 C-76 24.11 -76 13.22 -76 2 C-60.49 2 -44.98 2 -29 2 C-29 2.66 -29 3.32 -29 4 C-27.35 4 -25.7 4 -24 4 C-24 4.66 -24 5.32 -24 6 C-23.34 6 -22.68 6 -22 6 C-21.505 7.98 -21.505 7.98 -21 10 C-20.34 10 -19.68 10 -19 10 C-18.34 11.98 -17.68 13.96 -17 16 C-16.01 16 -15.02 16 -14 16 C-14 15.34 -14 14.68 -14 14 C-13.34 14 -12.68 14 -12 14 C-11.5359375 12.576875 -11.5359375 12.576875 -11.0625 11.125 C-10 8 -10 8 -9 6 C-8.01 6 -7.02 6 -6 6 C-6 5.34 -6 4.68 -6 4 C-5.34 4 -4.68 4 -4 4 C-4 3.34 -4 2.68 -4 2 C-2.68 2 -1.36 2 0 2 C0 1.34 0 0.68 0 0 Z " fill="#850015" transform="translate(462,177)"/>
<path d="M0 0 C2.65625 0.328125 2.65625 0.328125 4.4375 2.03125 C8.53120975 8.09738353 12.5400131 14.2140516 16.51953125 20.35546875 C23.12781037 30.53698268 29.7941288 40.67961791 36.4777832 50.81176758 C38.35381982 53.65589112 40.22873751 56.50074989 42.10351562 59.34570312 C47.26673794 67.17812584 52.43269868 75.00840876 57.64453125 82.80859375 C64.83883856 93.57619106 71.94065876 104.40513252 79.06103516 115.22167969 C87.82807752 128.54514992 87.82807752 128.54514992 96.65625 141.828125 C103.84742616 152.5886987 110.94482688 163.4114643 118.06103516 174.22167969 C131.44869999 194.62627581 131.44869999 194.62627581 145.1328125 214.83203125 C145.82246094 215.83943359 146.51210938 216.84683594 147.22265625 217.88476562 C148.62393116 219.93083971 150.03583397 221.96966653 151.45703125 224.00195312 C152.13378906 224.99775391 152.81054688 225.99355469 153.5078125 227.01953125 C154.11447754 227.89810791 154.72114258 228.77668457 155.34619141 229.68188477 C157.02285181 233.0686388 157.31998066 234.57532101 156.65625 238.328125 C154.90589838 241.68124997 152.75750353 244.71840258 150.578125 247.8046875 C149.28363759 249.68983421 147.99004652 251.57559666 146.69726562 253.46191406 C146.02703369 254.43116821 145.35680176 255.40042236 144.66625977 256.39904785 C141.47625363 261.04766909 138.38815863 265.76196662 135.296875 270.4765625 C134.06668706 272.34523698 132.83621741 274.21372603 131.60546875 276.08203125 C130.37234143 277.95569336 129.13926872 279.82939142 127.90625 281.703125 C114.02179124 302.79925628 114.02179124 302.79925628 108.671875 310.8046875 C102.11710176 320.61303532 95.64272086 330.47454224 89.15625 340.328125 C75.03910356 361.77344923 75.03910356 361.77344923 68.4831543 371.58349609 C62.32895302 380.80169335 56.25055396 390.07028207 50.15625 399.328125 C42.43524061 411.05709236 34.70763372 422.78077282 26.90582275 434.45617676 C25.05968126 437.22182711 23.21836371 439.99067904 21.37692261 442.75946045 C19.43792306 445.67484192 17.49766296 448.58938346 15.55737305 451.50390625 C14.56511736 452.99485524 13.5732682 454.48607485 12.58178711 455.97753906 C11.12720587 458.16542549 9.67117524 460.35234083 8.21484375 462.5390625 C7.54780678 463.54348892 7.54780678 463.54348892 6.86729431 464.56820679 C3.77011973 469.21425527 3.77011973 469.21425527 2.65625 470.328125 C0.3203125 470.66796875 0.3203125 470.66796875 -2.34375 470.328125 C-7.56182275 465.23114677 -11.25162406 457.94209927 -15.20703125 451.80078125 C-21.41600588 442.18445953 -27.71089874 432.62533014 -34.0144043 423.07080078 C-35.908242 420.20010552 -37.80088462 417.32862516 -39.69335938 414.45703125 C-44.89174383 406.57188237 -50.0927939 398.68881087 -55.33984375 390.8359375 C-62.53155647 380.07225385 -69.63074063 369.24719538 -76.74853516 358.43457031 C-82.99442704 348.9475061 -89.24196456 339.46218786 -95.55310059 330.01837158 C-100.89601382 322.01538925 -106.17519465 313.97023338 -111.46517944 305.93222046 C-120.09223798 292.82520752 -128.72010708 279.71889506 -137.42999268 266.66671753 C-138.51247328 265.04377655 -139.59292477 263.41948277 -140.67333984 261.79516602 C-143.62715573 257.36086873 -146.59722997 252.94337138 -149.65234375 248.578125 C-150.13743408 247.87727783 -150.62252441 247.17643066 -151.12231445 246.4543457 C-151.97203088 245.23084649 -152.83250363 244.01468429 -153.70776367 242.80932617 C-156.2692513 239.10618657 -156.87025694 236.78310744 -156.34375 232.328125 C-155.06646011 229.61038585 -153.39237405 227.21545562 -151.67578125 224.7578125 C-150.92798653 223.65090561 -150.92798653 223.65090561 -150.16508484 222.52163696 C-148.50772156 220.07356321 -146.831827 217.63875998 -145.15625 215.203125 C-143.38700459 212.59808427 -141.62279 209.98967854 -139.85848999 207.38128662 C-138.61975714 205.55094932 -137.37934586 203.72174697 -136.13735962 201.89361572 C-128.92953424 191.27759932 -121.88860846 180.55264816 -114.84375 169.828125 C-112.48008633 166.2337694 -110.11530695 162.64014939 -107.75 159.046875 C-107.1910051 158.19747345 -106.63201019 157.3480719 -106.05607605 156.47293091 C-102.85500629 151.61209672 -99.64009203 146.7609599 -96.40625 141.921875 C-89.83590641 132.0900475 -83.34571188 122.20524012 -76.84375 112.328125 C-62.72660356 90.88280077 -62.72660356 90.88280077 -56.1706543 81.07275391 C-50.01645302 71.85455665 -43.93805396 62.58596793 -37.84375 53.328125 C-30.39285094 42.00948162 -22.94108133 30.69204659 -15.41259766 19.42480469 C-13.6757444 16.82505879 -11.94331698 14.22250751 -10.21484375 11.6171875 C-9.80041016 10.99328125 -9.38597656 10.369375 -8.95898438 9.7265625 C-8.13786564 8.49011837 -7.31762049 7.25309384 -6.49804688 6.015625 C-2.75471957 0.38566074 -2.75471957 0.38566074 0 0 Z M-0.34375 11.328125 C-1.77369325 13.34797883 -3.14540081 15.38309548 -4.5 17.453125 C-5.1574823 18.44880493 -5.1574823 18.44880493 -5.82824707 19.46459961 C-6.80550675 20.94559185 -7.78111725 22.42767321 -8.75537109 23.91064453 C-10.40784844 26.42568153 -12.06479799 28.93772584 -13.72265625 31.44921875 C-17.43363651 37.07292265 -21.13903103 42.70029506 -24.84375 48.328125 C-38.96089644 69.77344923 -38.96089644 69.77344923 -45.5168457 79.58349609 C-51.67104698 88.80169335 -57.74944604 98.07028207 -63.84375 107.328125 C-77.96089644 128.77344923 -77.96089644 128.77344923 -84.5168457 138.58349609 C-90.67104698 147.80169335 -96.74944604 157.07028207 -102.84375 166.328125 C-124.23292715 198.82037411 -124.23292715 198.82037411 -131.36752319 209.19561768 C-133.15170854 211.79289553 -134.92554418 214.39714777 -136.69799805 217.00244141 C-137.60145055 218.32428456 -138.51015371 219.64255152 -139.42358398 220.95751953 C-140.76914709 222.89734734 -142.09514488 224.84930765 -143.41796875 226.8046875 C-143.82923508 227.38803864 -144.2405014 227.97138977 -144.66423035 228.57241821 C-146.39909087 231.17239585 -147.36422273 232.82013076 -147.23657227 235.98754883 C-146.34395154 238.32759665 -145.37356949 240.21877577 -143.984375 242.30078125 C-143.19776489 243.49380859 -143.19776489 243.49380859 -142.39526367 244.7109375 C-141.80076416 245.59523438 -141.20626465 246.47953125 -140.59375 247.390625 C-139.96122314 248.34582031 -139.32869629 249.30101562 -138.67700195 250.28515625 C-137.16403707 252.56986601 -135.64814277 254.85244736 -134.12939453 257.13330078 C-130.81788972 262.1127801 -127.53263564 267.10949323 -124.24609375 272.10546875 C-110.85245754 292.48279433 -110.85245754 292.48279433 -97.36328125 312.796875 C-90.16637933 323.56838595 -83.0619231 334.40121041 -75.93896484 345.22167969 C-67.17192248 358.54514992 -67.17192248 358.54514992 -58.34375 371.828125 C-51.15257384 382.5886987 -44.05517312 393.4114643 -36.93896484 404.22167969 C-29.43974793 415.61245521 -21.92258988 426.99016708 -14.34375 438.328125 C-12.99710419 440.34746179 -11.6507318 442.36698096 -10.3046875 444.38671875 C-9.70527344 445.28583984 -9.10585938 446.18496094 -8.48828125 447.11132812 C-5.7734375 451.18359375 -3.05859375 455.25585938 -0.34375 459.328125 C2.6659372 456.49392375 4.94241129 453.60958037 7.18359375 450.140625 C8.22688843 448.53598389 8.22688843 448.53598389 9.29125977 446.89892578 C9.66421173 446.32047913 10.0371637 445.74203247 10.42141724 445.14605713 C12.05179592 442.61783486 13.69327661 440.09688755 15.33415222 437.57546997 C16.24743079 436.17205285 17.16018372 434.76829356 18.07246399 433.36422729 C23.9421109 424.33592516 29.87373673 415.3484152 35.80252075 406.35888672 C37.67827533 403.51450061 39.55298752 400.66942997 41.42749023 397.82421875 C46.47482056 390.16555225 51.52531956 382.50935573 56.62109375 374.8828125 C63.1816912 365.06359521 69.66303022 355.19196002 76.15625 345.328125 C90.27339644 323.88280077 90.27339644 323.88280077 96.8293457 314.07275391 C102.98354698 304.85455665 109.06194604 295.58596793 115.15625 286.328125 C129.39552201 264.69728011 129.39552201 264.69728011 135.26953125 255.8671875 C135.84247925 255.00407959 135.84247925 255.00407959 136.42700195 254.12353516 C139.63455882 249.31219986 142.97292541 244.60364686 146.35546875 239.9140625 C147.95520298 236.73381007 147.60666407 235.69125194 146.65625 232.328125 C145.60758221 230.2396878 145.60758221 230.2396878 144.23120117 228.24926758 C143.72373856 227.47822189 143.21627594 226.70717621 142.69343567 225.9127655 C142.13846909 225.08690445 141.5835025 224.2610434 141.01171875 223.41015625 C140.43310593 222.53510941 139.8544931 221.66006256 139.25834656 220.75849915 C138.02500684 218.89419929 136.78838613 217.03206653 135.54876709 215.17193604 C133.0889312 211.47563734 130.65321763 207.7637478 128.21682739 204.05197144 C125.76108811 200.31286338 123.29795552 196.57865267 120.8347168 192.84448242 C118.95868018 190.00035888 117.08376249 187.15550011 115.20898438 184.31054688 C110.04576206 176.47812416 104.87980132 168.64784124 99.66796875 160.84765625 C92.47366144 150.08005894 85.37184124 139.25111748 78.25146484 128.43457031 C69.48442248 115.11110008 69.48442248 115.11110008 60.65625 101.828125 C53.46507384 91.0675513 46.36767312 80.2447857 39.25146484 69.43457031 C32.49756424 59.17587709 25.73575909 48.92323003 18.91259766 38.71044922 C16.66943364 35.35167066 14.44136758 31.98311489 12.21484375 28.61328125 C11.52970703 27.57880859 10.84457031 26.54433594 10.13867188 25.47851562 C8.73769832 23.36300541 7.33939186 21.24572722 5.94335938 19.12695312 C5.26982422 18.11181641 4.59628906 17.09667969 3.90234375 16.05078125 C3.30091553 15.14078369 2.6994873 14.23078613 2.07983398 13.29321289 C1.37515991 12.32049438 1.37515991 12.32049438 0.65625 11.328125 C0.32625 11.328125 -0.00375 11.328125 -0.34375 11.328125 Z " fill="#7E0418" transform="translate(460.34375,37.671875)"/>
<path d="M0 0 C1.30515564 -0.01606293 2.61031128 -0.03212585 3.95501709 -0.04867554 C5.39220532 -0.06016317 6.8294008 -0.07077168 8.26660156 -0.08056641 C8.98759285 -0.08589008 9.70858414 -0.09121376 10.45142365 -0.09669876 C14.26968829 -0.12345286 18.08792004 -0.14281792 21.90625 -0.15722656 C25.84868122 -0.17385445 29.79027317 -0.21860849 33.73238754 -0.26959801 C36.76419009 -0.30328205 39.79579409 -0.31480531 42.82776642 -0.32045364 C44.28064618 -0.32716618 45.73351287 -0.34238867 47.18621063 -0.36634445 C49.22286875 -0.39800568 51.25997556 -0.39503037 53.296875 -0.390625 C54.45523865 -0.39871185 55.61360229 -0.40679871 56.80706787 -0.41513062 C60.86541419 0.38079041 62.3379993 2.02396291 64.90722656 5.19287109 C65.90722656 8.19287109 65.90722656 8.19287109 65.40722656 10.56787109 C64.85943922 13.44375462 65.18442489 15.38197571 65.90722656 18.19287109 C67.55722656 18.19287109 69.20722656 18.19287109 70.90722656 18.19287109 C70.90722656 19.51287109 70.90722656 20.83287109 70.90722656 22.19287109 C65.95722656 22.19287109 61.00722656 22.19287109 55.90722656 22.19287109 C53.90722656 18.19287109 53.90722656 18.19287109 53.90722656 13.19287109 C49.28722656 13.52287109 44.66722656 13.85287109 39.90722656 14.19287109 C39.57722656 15.51287109 39.24722656 16.83287109 38.90722656 18.19287109 C40.88722656 18.19287109 42.86722656 18.19287109 44.90722656 18.19287109 C44.90722656 19.51287109 44.90722656 20.83287109 44.90722656 22.19287109 C37.64722656 22.19287109 30.38722656 22.19287109 22.90722656 22.19287109 C22.90722656 20.87287109 22.90722656 19.55287109 22.90722656 18.19287109 C24.88722656 17.86287109 26.86722656 17.53287109 28.90722656 17.19287109 C28.72160156 16.30599609 28.53597656 15.41912109 28.34472656 14.50537109 C27.92680172 11.34108299 28.09944914 9.24447467 28.90722656 6.19287109 C26.92722656 5.86287109 24.94722656 5.53287109 22.90722656 5.19287109 C22.57722656 7.17287109 22.24722656 9.15287109 21.90722656 11.19287109 C18.93722656 11.19287109 15.96722656 11.19287109 12.90722656 11.19287109 C12.44316406 9.98630859 12.44316406 9.98630859 11.96972656 8.75537109 C11.14387311 6.30206705 11.14387311 6.30206705 9.90722656 5.19287109 C7.88758457 5.12043056 5.86555533 5.10909921 3.84472656 5.13037109 C2.74 5.13939453 1.63527344 5.14841797 0.49707031 5.15771484 C-0.35757812 5.16931641 -1.21222656 5.18091797 -2.09277344 5.19287109 C-2.42277344 6.84287109 -2.75277344 8.49287109 -3.09277344 10.19287109 C-2.10277344 10.19287109 -1.11277344 10.19287109 -0.09277344 10.19287109 C-0.09277344 9.20287109 -0.09277344 8.21287109 -0.09277344 7.19287109 C2.87722656 7.19287109 5.84722656 7.19287109 8.90722656 7.19287109 C8.57722656 10.16287109 8.24722656 13.13287109 7.90722656 16.19287109 C5.26722656 16.19287109 2.62722656 16.19287109 -0.09277344 16.19287109 C-0.09277344 15.53287109 -0.09277344 14.87287109 -0.09277344 14.19287109 C-1.08277344 14.19287109 -2.07277344 14.19287109 -3.09277344 14.19287109 C-3.09277344 15.51287109 -3.09277344 16.83287109 -3.09277344 18.19287109 C-0.80037337 18.13301731 1.49128863 18.04428082 3.78222656 17.94287109 C5.05839844 17.89646484 6.33457031 17.85005859 7.64941406 17.80224609 C8.72449219 17.60115234 9.79957031 17.40005859 10.90722656 17.19287109 C11.56722656 15.87287109 12.22722656 14.55287109 12.90722656 13.19287109 C15.87722656 13.19287109 18.84722656 13.19287109 21.90722656 13.19287109 C21.90722656 16.16287109 21.90722656 19.13287109 21.90722656 22.19287109 C8.37722656 22.19287109 -5.15277344 22.19287109 -19.09277344 22.19287109 C-19.09277344 20.87287109 -19.09277344 19.55287109 -19.09277344 18.19287109 C-17.11277344 17.86287109 -15.13277344 17.53287109 -13.09277344 17.19287109 C-13.27839844 16.30599609 -13.46402344 15.41912109 -13.65527344 14.50537109 C-14.07319828 11.34108299 -13.90055086 9.24447467 -13.09277344 6.19287109 C-15.07277344 5.53287109 -17.05277344 4.87287109 -19.09277344 4.19287109 C-19.09277344 3.20287109 -19.09277344 2.21287109 -19.09277344 1.19287109 C-17.81080078 1.21027344 -17.81080078 1.21027344 -16.50292969 1.22802734 C-14.84583984 1.2415625 -14.84583984 1.2415625 -13.15527344 1.25537109 C-11.50205078 1.27277344 -11.50205078 1.27277344 -9.81542969 1.29052734 C-6.34012661 1.16587515 -3.8432896 0.04278661 0 0 Z " fill="#790316" transform="translate(506.0927734375,235.80712890625)"/>
<path d="M0 0 C8.51888987 -0.11594941 17.03744903 -0.20474236 25.5569334 -0.25906086 C29.51309303 -0.28513382 33.46871205 -0.32048809 37.42456055 -0.37719727 C41.24362802 -0.43160179 45.0621762 -0.46143786 48.88160133 -0.47438622 C50.33729031 -0.48361119 51.79295146 -0.50162618 53.24841881 -0.52865028 C55.29082579 -0.56505743 57.33109903 -0.56994116 59.3737793 -0.56762695 C61.11584908 -0.58428154 61.11584908 -0.58428154 62.89311218 -0.60127258 C66.96027044 0.18584008 68.42799541 1.82501428 71 5 C72 8 72 8 71.5 10.375 C70.95221266 13.25088353 71.27719833 15.18910462 72 18 C73.65 18 75.3 18 77 18 C77 19.32 77 20.64 77 22 C72.05 22 67.1 22 62 22 C60 18 60 18 60 13 C55.38 13 50.76 13 46 13 C44.875 6.25 44.875 6.25 46 4 C49.63 4 53.26 4 57 4 C57 3.34 57 2.68 57 2 C55.5291394 2.00785522 55.5291394 2.00785522 54.02856445 2.01586914 C35.99382495 2.10381501 18.00604618 2.18349599 0 1 C0 0.67 0 0.34 0 0 Z " fill="#53030F" transform="translate(500,236)"/>
<path d="M0 0 C2.71504684 1.39146151 3.96123166 2.66997905 6 5 C6.33 3.35 6.66 1.7 7 0 C7.66 0 8.32 0 9 0 C9.30859278 4.29656098 8.30645087 7.15466676 6.5625 11.0625 C5.10311769 14.359623 3.73789485 17.46319363 3 21 C2.01 21 1.02 21 0 21 C0.72008406 16.39146203 2.31295939 12.32762591 4 8 C3.47921875 8.49113281 2.9584375 8.98226562 2.421875 9.48828125 C-0.78742022 11.49150262 -2.99922336 11.3000233 -6.75 11.1875 C-7.92046875 11.16042969 -9.0909375 11.13335937 -10.296875 11.10546875 C-11.18890625 11.07066406 -12.0809375 11.03585938 -13 11 C-13.66 9.68 -14.32 8.36 -15 7 C-15.66 7 -16.32 7 -17 7 C-16.6875 4.625 -16.6875 4.625 -16 2 C-11.1268633 -1.2487578 -5.69243549 -0.71853046 0 0 Z " fill="#630616" transform="translate(504,190)"/>
<path d="M0 0 C1.60488281 -0.03867188 1.60488281 -0.03867188 3.2421875 -0.078125 C6.125 0.25 6.125 0.25 8.0078125 1.515625 C9.125 3.25 9.125 3.25 9.125 7.25 C12.095 7.25 15.065 7.25 18.125 7.25 C18.125 4.94 18.125 2.63 18.125 0.25 C20.435 0.58 22.745 0.91 25.125 1.25 C26.14103851 5.9491781 26.14103851 9.5508219 25.125 14.25 C23.145 14.25 21.165 14.25 19.125 14.25 C18.795 15.57 18.465 16.89 18.125 18.25 C18.125 15.28 18.125 12.31 18.125 9.25 C15.155 9.25 12.185 9.25 9.125 9.25 C8.795 10.57 8.465 11.89 8.125 13.25 C7.125 14.25 7.125 14.25 3.96484375 14.34765625 C2.03318359 14.33025391 2.03318359 14.33025391 0.0625 14.3125 C-1.22785156 14.30347656 -2.51820313 14.29445312 -3.84765625 14.28515625 C-4.84667969 14.27355469 -5.84570312 14.26195312 -6.875 14.25 C-6.875 12.93 -6.875 11.61 -6.875 10.25 C-5.885 10.25 -4.895 10.25 -3.875 10.25 C-3.875 10.91 -3.875 11.57 -3.875 12.25 C-1.235 12.25 1.405 12.25 4.125 12.25 C4.455 9.28 4.785 6.31 5.125 3.25 C2.155 3.25 -0.815 3.25 -3.875 3.25 C-3.875 4.24 -3.875 5.23 -3.875 6.25 C-4.865 6.25 -5.855 6.25 -6.875 6.25 C-6.917721 4.58388095 -6.91563832 2.91617115 -6.875 1.25 C-5.07228218 -0.55271782 -2.43091251 0.03497716 0 0 Z " fill="#2A0002" transform="translate(509.875,239.75)"/>
<path d="M0 0 C1.98 0.66 3.96 1.32 6 2 C5.93489583 3.98567708 5.86979167 5.97135417 5.8046875 7.95703125 C5.86745538 10.31359719 5.86745538 10.31359719 8 13 C8 13.99 8 14.98 8 16 C9.98 16 11.96 16 14 16 C14 17.32 14 18.64 14 20 C9.05 20 4.1 20 -1 20 C-3.48031233 15.03937534 -3.87437162 10.97185267 -2.32421875 5.703125 C-1.60491064 3.78042464 -0.80865605 1.88686413 0 0 Z " fill="#840116" transform="translate(563,238)"/>
<path d="M0 0 C7.67360383 0.01051179 7.67360383 0.01051179 11.7265625 2.81640625 C13.4765625 5.56640625 13.4765625 5.56640625 13.5390625 7.69140625 C12.17091628 10.10578194 10.8378015 11.10430114 8.4765625 12.56640625 C3.55898027 13.36912923 -1.01393853 13.52699651 -5.2734375 10.81640625 C-6.5234375 8.56640625 -6.5234375 8.56640625 -6.4609375 6.56640625 C-3.78072247 0.84861418 -3.78072247 0.84861418 0 0 Z " fill="#6C0617" transform="translate(516.5234375,198.43359375)"/>
<path d="M0 0 C0.33 0 0.66 0 1 0 C1 10.23 1 20.46 1 31 C16.84 31 32.68 31 49 31 C49 30.34 49 29.68 49 29 C51.31 28.67 53.62 28.34 56 28 C56 27.34 56 26.68 56 26 C56.66 26 57.32 26 58 26 C58.309375 25.05125 58.61875 24.1025 58.9375 23.125 C60 20 60 20 61 18 C61.66 18 62.32 18 63 18 C63 18.66 63 19.32 63 20 C63.66 20 64.32 20 65 20 C65 21.32 65 22.64 65 24 C63.68 24 62.36 24 61 24 C59.94228261 25.63064764 58.94726954 27.30280873 58 29 C53.94715735 32.66063207 50.28829664 33.12699065 44.95605469 33.11352539 C43.95531921 33.11344986 42.95458374 33.11337433 41.92352295 33.11329651 C40.85047913 33.10813522 39.7774353 33.10297394 38.671875 33.09765625 C37.56773254 33.0962413 36.46359009 33.09482635 35.32598877 33.09336853 C31.80063158 33.08777258 28.27533798 33.07522079 24.75 33.0625 C22.35937592 33.05748448 19.96875084 33.05292166 17.578125 33.04882812 C11.71870581 33.03865552 5.85942406 33.01907917 0 33 C0 22.11 0 11.22 0 0 Z " fill="#3B0108" transform="translate(385,334)"/>
<path d="M0 0 C0.33 0.66 0.66 1.32 1 2 C1.66 2 2.32 2 3 2 C3 2.66 3 3.32 3 4 C3.61875 4.144375 4.2375 4.28875 4.875 4.4375 C7 5 7 5 9 6 C10.73868744 6.15266612 12.48247501 6.24932596 14.2265625 6.31640625 C15.6199585 6.37356812 15.6199585 6.37356812 17.04150391 6.43188477 C18.22405762 6.47498779 19.40661133 6.51809082 20.625 6.5625 C24.37875 6.706875 28.1325 6.85125 32 7 C32 17.23 32 27.46 32 38 C25.452562 38.06905501 18.90639937 38.12873504 12.35888672 38.16479492 C10.13390815 38.17983512 7.90895899 38.20027246 5.68408203 38.22631836 C2.47681394 38.26291135 -0.73006045 38.2797745 -3.9375 38.29296875 C-4.92427734 38.30845261 -5.91105469 38.32393646 -6.92773438 38.33988953 C-12.97314759 38.34134624 -17.54417557 37.69541843 -23 35 C-24.5 31.8125 -24.5 31.8125 -25 29 C-22 30 -22 30 -20 33 C-14.0336822 36.05635128 -7.73125141 36.46228316 -1.15234375 36.51171875 C-0.25504044 36.52966995 0.64226288 36.54762115 1.5667572 36.56611633 C4.39862537 36.6197733 7.23032942 36.65397034 10.0625 36.6875 C11.99676742 36.72071257 13.9310133 36.7552058 15.86523438 36.79101562 C20.57684069 36.8778562 25.28773092 36.93830438 30 37 C30 27.76 30 18.52 30 9 C22.98531364 8.75102483 22.98531364 8.75102483 15.9699707 8.52197266 C15.08913818 8.4863623 14.20830566 8.45075195 13.30078125 8.4140625 C11.95753784 8.36693115 11.95753784 8.36693115 10.5871582 8.31884766 C6.41437159 7.80458331 3.47836197 6.31890798 0 4 C0 2.68 0 1.36 0 0 Z " fill="#6F0618" transform="translate(475,327)"/>
<path d="M0 0 C0.33 0 0.66 0 1 0 C1.03758423 1.8394519 1.03758423 1.8394519 1.07592773 3.71606445 C1.17003054 8.2615827 1.27024433 12.80694917 1.37231445 17.35229492 C1.41565241 19.32035779 1.45732832 21.28845798 1.49731445 23.2565918 C1.55504445 26.0839361 1.61873116 28.91109271 1.68359375 31.73828125 C1.70030624 32.61962234 1.71701874 33.50096344 1.73423767 34.40901184 C1.75418289 35.22963608 1.77412811 36.05026031 1.79467773 36.89575195 C1.81799416 37.97830009 1.81799416 37.97830009 1.84178162 39.0827179 C1.94195257 41.22108144 1.94195257 41.22108144 3 44 C3.03954234 46.33299825 3.04401732 48.66708189 3 51 C1 50 1 50 -0.1105957 47.44873047 C-1.12471006 43.5164276 -1.27004391 39.84854749 -1.23046875 35.8203125 C-1.23001053 35.04871796 -1.22955231 34.27712341 -1.2290802 33.48214722 C-1.22607204 31.85673476 -1.21822901 30.23132483 -1.20581055 28.60595703 C-1.18760733 26.1395425 -1.18530087 23.67350586 -1.18554688 21.20703125 C-1.18062838 19.61978847 -1.17479861 18.0325482 -1.16796875 16.4453125 C-1.16685593 15.71796906 -1.1657431 14.99062561 -1.16459656 14.24124146 C-1.12070796 9.42042348 -0.67312643 4.7746654 0 0 Z " fill="#330006" transform="translate(470,208)"/>
<path d="M0 0 C0.99 0.33 1.98 0.66 3 1 C3 1.66 3 2.32 3 3 C2.34 3 1.68 3 1 3 C1 4.32 1 5.64 1 7 C0.01 7.33 -0.98 7.66 -2 8 C-1.67 10.97 -1.34 13.94 -1 17 C-1.66 17 -2.32 17 -3 17 C-3.33 17.99 -3.66 18.98 -4 20 C-5.5 18.6875 -5.5 18.6875 -7 17 C-7 16.01 -7 15.02 -7 14 C-7.66 14 -8.32 14 -9 14 C-8.62367503 8.60600878 -7.00757621 6.53048381 -3 3 C-2.401875 2.401875 -1.80375 1.80375 -1.1875 1.1875 C-0.795625 0.795625 -0.40375 0.40375 0 0 Z " fill="#870116" transform="translate(314,261)"/>
<path d="M0 0 C4.62 0 9.24 0 14 0 C14 7.875 14 7.875 13.125 11.18359375 C12.94453125 11.88291016 12.7640625 12.58222656 12.578125 13.30273438 C12.29195313 14.35944336 12.29195313 14.35944336 12 15.4375 C11.80921875 16.16904297 11.6184375 16.90058594 11.421875 17.65429688 C10.95549597 19.43819666 10.47881722 21.21939845 10 23 C9.67 23 9.34 23 9 23 C8.64631979 15.87399867 9.04328652 10.52940894 12 4 C7.05 4 2.1 4 -3 4 C-3 4.66 -3 5.32 -3 6 C-3.99 6 -4.98 6 -6 6 C-6 5.34 -6 4.68 -6 4 C-5.34 4 -4.68 4 -4 4 C-4 3.34 -4 2.68 -4 2 C-2.68 2 -1.36 2 0 2 C0 1.34 0 0.68 0 0 Z " fill="#5E0413" transform="translate(462,177)"/>
<path d="M0 0 C2.4377963 -0.05397335 4.87439685 -0.09365616 7.3125 -0.125 C8.00279297 -0.14175781 8.69308594 -0.15851563 9.40429688 -0.17578125 C13.17135396 -0.21217794 14.78431704 -0.14378864 18 2 C16.02 2 14.04 2 12 2 C12.33 2.66 12.66 3.32 13 4 C13.07033769 5.87379605 13.0843022 7.75001102 13.0625 9.625 C13.05347656 10.62789062 13.04445313 11.63078125 13.03515625 12.6640625 C13.02355469 13.43492187 13.01195312 14.20578125 13 15 C11.48046875 13.203125 11.48046875 13.203125 10 11 C10.3125 7.75 10.3125 7.75 11 5 C8.03 4.505 8.03 4.505 5 4 C4.67 5.98 4.34 7.96 4 10 C1.03 10 -1.94 10 -5 10 C-5 9.67 -5 9.34 -5 9 C-2.36 9 0.28 9 3 9 C3 6.36 3 3.72 3 1 C2.01 0.67 1.02 0.34 0 0 Z " fill="#6D0517" transform="translate(524,237)"/>
<path d="M0 0 C4.29 0 8.58 0 13 0 C13 1.65 13 3.3 13 5 C8.38 5 3.76 5 -1 5 C-0.67 3.35 -0.34 1.7 0 0 Z " fill="#150000" transform="translate(546,241)"/>
<path d="M0 0 C0.99 0.33 1.98 0.66 3 1 C3.57446809 19.34042553 3.57446809 19.34042553 0 28 C-0.33 28 -0.66 28 -1 28 C-0.67 18.76 -0.34 9.52 0 0 Z " fill="#590411" transform="translate(423,231)"/>
<path d="M0 0 C0.66 0 1.32 0 2 0 C2 0.66 2 1.32 2 2 C2.66 2 3.32 2 4 2 C4 3.32 4 4.64 4 6 C2.68 6 1.36 6 0 6 C-1.05771739 7.63064764 -2.05273046 9.30280873 -3 11 C-6.00399577 13.76473947 -8.2116429 14.42181861 -12.25 14.6875 C-13.14203125 14.75324219 -14.0340625 14.81898438 -14.953125 14.88671875 C-15.62859375 14.92410156 -16.3040625 14.96148437 -17 15 C-14 13 -14 13 -12 13 C-12 12.34 -12 11.68 -12 11 C-8.535 10.505 -8.535 10.505 -5 10 C-5 9.34 -5 8.68 -5 8 C-4.34 8 -3.68 8 -3 8 C-2.690625 7.05125 -2.38125 6.1025 -2.0625 5.125 C-1 2 -1 2 0 0 Z " fill="#260003" transform="translate(446,352)"/>
<path d="M0 0 C2.97 0 5.94 0 9 0 C9 2.97 9 5.94 9 9 C6.69 8.67 4.38 8.34 2 8 C2 7.34 2 6.68 2 6 C3.65 6 5.3 6 7 6 C7 4.68 7 3.36 7 2 C2.58477891 3.26974972 2.58477891 3.26974972 -1 6 C-3.58064129 6.14497985 -6.04943884 6.18677545 -8.625 6.125 C-9.33140625 6.11597656 -10.0378125 6.10695312 -10.765625 6.09765625 C-12.51056098 6.07407603 -14.25532295 6.03820461 -16 6 C-16 5.67 -16 5.34 -16 5 C-14.51886719 4.96132812 -14.51886719 4.96132812 -13.0078125 4.921875 C-11.72648437 4.86515625 -10.44515625 4.8084375 -9.125 4.75 C-7.84882813 4.70359375 -6.57265625 4.6571875 -5.2578125 4.609375 C-4.18273437 4.40828125 -3.10765625 4.2071875 -2 4 C-1.34 2.68 -0.68 1.36 0 0 Z " fill="#6A0414" transform="translate(519,249)"/>
<path d="M0 0 C0.66 0 1.32 0 2 0 C2.30859278 4.29656098 1.30645087 7.15466676 -0.4375 11.0625 C-1.89688231 14.359623 -3.26210515 17.46319363 -4 21 C-4.99 21 -5.98 21 -7 21 C-6.27991594 16.39146203 -4.68704061 12.32762591 -3 8 C-3.66 7.67 -4.32 7.34 -5 7 C-4.34 6.01 -3.68 5.02 -3 4 C-2.34 4.33 -1.68 4.66 -1 5 C-0.67 3.35 -0.34 1.7 0 0 Z " fill="#5D0715" transform="translate(511,190)"/>
<path d="M0 0 C3.18005028 3.88672813 6.10554447 7.89952133 9 12 C8.67 12.66 8.34 13.32 8 14 C5.48916886 12.74458443 5.12874554 11.49936512 4 9 C3.01 9.33 2.02 9.66 1 10 C1.33 11.98 1.66 13.96 2 16 C-1.97497544 12.59287819 -3.86793788 8.67239145 -6 4 C-5.34 4 -4.68 4 -4 4 C-3.525625 4.495 -3.05125 4.99 -2.5625 5.5 C-1.00030058 7.34626591 -1.00030058 7.34626591 2 7 C2 6.01 2 5.02 2 4 C1.34 4 0.68 4 0 4 C0 2.68 0 1.36 0 0 Z " fill="#76081A" transform="translate(405,414)"/>
<path d="M0 0 C2.475 0.495 2.475 0.495 5 1 C6.31626692 4.61973402 7 7.09567131 7 11 C4.69 11 2.38 11 0 11 C0 7.37 0 3.74 0 0 Z " fill="#080000" transform="translate(529,242)"/>
<path d="M0 0 C0.625 1.8125 0.625 1.8125 1 4 C0.01 5.485 0.01 5.485 -1 7 C-3.49612117 14.15962026 -3.23723864 21.58136262 -3.125 29.0625 C-3.11597656 30.21427734 -3.10695313 31.36605469 -3.09765625 32.55273438 C-3.07428714 35.36871193 -3.04152565 38.18424158 -3 41 C-3.33 41 -3.66 41 -4 41 C-5.25560049 35.42591384 -5.2222534 30.0040207 -5.25 24.3125 C-5.270625 23.27416016 -5.29125 22.23582031 -5.3125 21.16601562 C-5.34707931 14.27176517 -4.38794171 8.47139407 -2 2 C-1.34 2 -0.68 2 0 2 C0 1.34 0 0.68 0 0 Z " fill="#230002" transform="translate(475,280)"/>
<path d="M0 0 C3 0.125 3 0.125 4 1.125 C4.125 4.125 4.125 4.125 4 7.125 C3 8.125 3 8.125 0 8.25 C-3 8.125 -3 8.125 -4 7.125 C-4.125 4.125 -4.125 4.125 -4 1.125 C-3 0.125 -3 0.125 0 0 Z " fill="#0E0000" transform="translate(497,191.875)"/>
<path d="M0 0 C0.66 0.33 1.32 0.66 2 1 C2.02689216 2.47906892 2.04634621 3.95827483 2.0625 5.4375 C2.07410156 6.26121094 2.08570313 7.08492187 2.09765625 7.93359375 C2 10 2 10 1 11 C-1.35313555 11.07271741 -3.70833668 11.08370868 -6.0625 11.0625 C-7.35285156 11.05347656 -8.64320313 11.04445312 -9.97265625 11.03515625 C-10.97167969 11.02355469 -11.97070312 11.01195312 -13 11 C-13 9.68 -13 8.36 -13 7 C-12.01 7 -11.02 7 -10 7 C-10 7.66 -10 8.32 -10 9 C-7.36 9 -4.72 9 -2 9 C-2 8.01 -2 7.02 -2 6 C-1.34 6 -0.68 6 0 6 C0 4.02 0 2.04 0 0 Z " fill="#190001" transform="translate(516,243)"/>
<path d="M0 0 C2.64 0 5.28 0 8 0 C8 1.98 8 3.96 8 6 C5.29120665 7.35439668 2.99066732 7.06501451 0 7 C0 4.69 0 2.38 0 0 Z " fill="#300004" transform="translate(516,202)"/>
<path d="M0 0 C3.70818297 -0.08756305 7.41609763 -0.14058015 11.125 -0.1875 C12.17171875 -0.21263672 13.2184375 -0.23777344 14.296875 -0.26367188 C24.34893456 -0.35910282 24.34893456 -0.35910282 29 3 C29.33 3.99 29.66 4.98 30 6 C30.99 6 31.98 6 33 6 C33.495 7.98 33.495 7.98 34 10 C30.55570748 8.46920333 27.90483327 6.38345294 25 4 C21.76375324 1.84250216 20.65605934 1.71639512 16.89453125 1.5859375 C15.91162109 1.54726562 14.92871094 1.50859375 13.91601562 1.46875 C12.37977539 1.42234375 12.37977539 1.42234375 10.8125 1.375 C9.77673828 1.33632812 8.74097656 1.29765625 7.67382812 1.2578125 C5.11606378 1.16351704 2.55830713 1.07791798 0 1 C0 0.67 0 0.34 0 0 Z " fill="#220002" transform="translate(386,212)"/>
<path d="M0 0 C0.66 0 1.32 0 2 0 C2.20846282 5.10733917 1.55827416 9.14185114 0 14 C-0.9733416 17.18548161 -1.10363263 17.68910211 0 21 C0.66 21.33 1.32 21.66 2 22 C1.01 22 0.02 22 -1 22 C-1 21.34 -1 20.68 -1 20 C-1.66 20 -2.32 20 -3 20 C-3 20.66 -3 21.32 -3 22 C-3.66 22 -4.32 22 -5 22 C-4.62996598 17.6521003 -3.83051688 14.38407229 -1.9375 10.4375 C-0.20928922 6.7939076 0.41967809 4.0918614 0 0 Z " fill="#350005" transform="translate(512,189)"/>
<path d="M0 0 C0.99 0.33 1.98 0.66 3 1 C2.67 2.65 2.34 4.3 2 6 C1.34 6 0.68 6 0 6 C0 6.66 0 7.32 0 8 C-0.94875 8.309375 -1.8975 8.61875 -2.875 8.9375 C-5.86080408 9.87394742 -5.86080408 9.87394742 -8 11 C-6.60366572 6.55711819 -4.39598172 4.13475236 -1 1 C-0.67 0.67 -0.34 0.34 0 0 Z " fill="#870116" transform="translate(487,462)"/>
<path d="M0 0 C1.13643966 3.40931897 0.86747764 4.00335456 -0.4375 7.1875 C-0.72496094 7.90292969 -1.01242187 8.61835938 -1.30859375 9.35546875 C-1.53675781 9.89816406 -1.76492188 10.44085938 -2 11 C-2.99 11 -3.98 11 -5 11 C-5.33 12.32 -5.66 13.64 -6 15 C-6.66 15 -7.32 15 -8 15 C-8 15.99 -8 16.98 -8 18 C-8.99 18 -9.98 18 -11 18 C-11.23828125 15.6796875 -11.23828125 15.6796875 -11 13 C-9.35546875 11.4453125 -9.35546875 11.4453125 -7.1875 10.125 C-2.90593782 7.21505332 -1.56320847 4.88502646 0 0 Z " fill="#2B0105" transform="translate(421,256)"/>
<path d="M0 0 C2.5 1.25 2.5 1.25 5 3 C5 4.32 5 5.64 5 7 C5.66 7.33 6.32 7.66 7 8 C5.625 9.5 5.625 9.5 4 11 C3.34 11 2.68 11 2 11 C1.71125 10.030625 1.4225 9.06125 1.125 8.0625 C0.35785318 4.89335797 0.35785318 4.89335797 -2 4 C-1.34 2.68 -0.68 1.36 0 0 Z " fill="#870116" transform="translate(366,360)"/>
<path d="M0 0 C2.97 0.495 2.97 0.495 6 1 C6.33 2.65 6.66 4.3 7 6 C3.93882432 8.62386487 3.26826873 9 -1 9 C-1 8.34 -1 7.68 -1 7 C-0.34 7 0.32 7 1 7 C0.67 4.69 0.34 2.38 0 0 Z " fill="#750417" transform="translate(523,201)"/>
<path d="M0 0 C0.33 0 0.66 0 1 0 C3.07434732 5.11236781 3.24424065 9.46330893 3.125 14.875 C3.11597656 15.65875 3.10695313 16.4425 3.09765625 17.25 C3.07428063 19.16680055 3.03841653 21.08344191 3 23 C2.34 23 1.68 23 1 23 C0.67 15.41 0.34 7.82 0 0 Z " fill="#49030D" transform="translate(422,290)"/>
<path d="M0 0 C2.79828356 0.38597015 3.8205884 0.80136573 5.75 2.9375 C7 5 7 5 7 7 C7.66 7 8.32 7 9 7 C9.53093324 8.93475671 10.04942317 10.87293155 10.5625 12.8125 C10.85253906 13.89144531 11.14257812 14.97039062 11.44140625 16.08203125 C12 19 12 19 11 22 C8.91864693 16.70201036 7.28708387 11.54436129 6 6 C5.34 6 4.68 6 4 6 C3.67 4.68 3.34 3.36 3 2 C2.01 2 1.02 2 0 2 C0 1.34 0 0.68 0 0 Z " fill="#6F0316" transform="translate(413,274)"/>
<path d="M0 0 C2.64 0 5.28 0 8 0 C8 1.98 8 3.96 8 6 C6.02 6 4.04 6 2 6 C1.34 4.02 0.68 2.04 0 0 Z " fill="#870017" transform="translate(518,239)"/>
<path d="M0 0 C0.33 0.66 0.66 1.32 1 2 C-0.67707617 6.766427 -2.2795963 9.52762321 -6 13 C-6.33 13.99 -6.66 14.98 -7 16 C-9.0625 17.1875 -9.0625 17.1875 -11 18 C-9.48103632 13.56829827 -7.07360191 9.96975924 -4.375 6.1875 C-3.95476562 5.59001953 -3.53453125 4.99253906 -3.1015625 4.37695312 C-2.07220272 2.91479435 -1.0367177 1.45695101 0 0 Z " fill="#160000" transform="translate(484,476)"/>
<path d="M0 0 C1.2065625 0.0309375 1.2065625 0.0309375 2.4375 0.0625 C2.4375 1.3825 2.4375 2.7025 2.4375 4.0625 C0.7875 4.0625 -0.8625 4.0625 -2.5625 4.0625 C-2.5625 4.7225 -2.5625 5.3825 -2.5625 6.0625 C-5.2025 6.0625 -7.8425 6.0625 -10.5625 6.0625 C-8.40395761 3.90395761 -6.18228408 2.60750087 -3.5625 1.0625 C-2.5625 0.0625 -2.5625 0.0625 0 0 Z " fill="#860016" transform="translate(523.5625,250.9375)"/>
<path d="M0 0 C2.475 0.495 2.475 0.495 5 1 C5.625 3.3125 5.625 3.3125 6 6 C5.01 7.485 5.01 7.485 4 9 C3.01 9 2.02 9 1 9 C0.67 6.03 0.34 3.06 0 0 Z " fill="#7C0317" transform="translate(501,191)"/>
<path d="M0 0 C1.57104492 0.00676758 1.57104492 0.00676758 3.17382812 0.01367188 C5.72011536 0.02529876 8.2662746 0.04163719 10.8125 0.0625 C10.8125 0.3925 10.8125 0.7225 10.8125 1.0625 C9.88183716 1.10008423 9.88183716 1.10008423 8.93237305 1.13842773 C6.12137603 1.25446721 3.31070759 1.37715759 0.5 1.5 C-0.47646484 1.53931641 -1.45292969 1.57863281 -2.45898438 1.61914062 C-3.39677734 1.66103516 -4.33457031 1.70292969 -5.30078125 1.74609375 C-6.59689331 1.80108032 -6.59689331 1.80108032 -7.91918945 1.85717773 C-10.3522826 1.98997354 -10.3522826 1.98997354 -13.1875 3.0625 C-14.92074119 2.97788508 -16.65142812 2.82645645 -18.375 2.625 C-19.27605469 2.52316406 -20.17710937 2.42132813 -21.10546875 2.31640625 C-21.79253906 2.23261719 -22.47960937 2.14882812 -23.1875 2.0625 C-23.1875 1.7325 -23.1875 1.4025 -23.1875 1.0625 C-15.43325135 0.21346673 -7.79703932 -0.06501701 0 0 Z " fill="#1A0001" transform="translate(510.1875,234.9375)"/>
<path d="M0 0 C0.66 0 1.32 0 2 0 C2 1.65 2 3.3 2 5 C1.360625 5.268125 0.72125 5.53625 0.0625 5.8125 C-2.33131686 6.88667752 -2.33131686 6.88667752 -3 10 C-6.63 10 -10.26 10 -14 10 C-14.33 9.34 -14.66 8.68 -15 8 C-13.87851562 7.94392578 -13.87851562 7.94392578 -12.734375 7.88671875 C-11.74953125 7.82097656 -10.7646875 7.75523437 -9.75 7.6875 C-8.77546875 7.62949219 -7.8009375 7.57148438 -6.796875 7.51171875 C-3.68048773 6.94154175 -2.19121551 6.27990756 0 4 C0 2.68 0 1.36 0 0 Z " fill="#1E0001" transform="translate(529,203)"/>
<path d="M0 0 C2.6015625 -0.29296875 2.6015625 -0.29296875 5.625 -0.1875 C7.12933594 -0.14689453 7.12933594 -0.14689453 8.6640625 -0.10546875 C9.43492187 -0.07066406 10.20578125 -0.03585938 11 0 C11.33 0.66 11.66 1.32 12 2 C8.85069107 3.04976964 6.61185544 3.10131595 3.3125 3.0625 C2.31863281 3.05347656 1.32476563 3.04445312 0.30078125 3.03515625 C-0.83810547 3.01775391 -0.83810547 3.01775391 -2 3 C-1.34 2.01 -0.68 1.02 0 0 Z " fill="#500411" transform="translate(514,199)"/>
<path d="M0 0 C1.33332095 2.6666419 0.67102033 4.16680303 0 7 C-0.61875 7.04125 -1.2375 7.0825 -1.875 7.125 C-2.57625 7.41375 -3.2775 7.7025 -4 8 C-4.67939174 9.99571323 -5.34561559 11.99594773 -6 14 C-8.0625 15.19140625 -8.0625 15.19140625 -10 16 C-6.99935973 10.36901124 -3.81213639 5.11915459 0 0 Z " fill="#160000" transform="translate(371,184)"/>
<path d="M0 0 C1.98 0 3.96 0 6 0 C6 0.99 6 1.98 6 3 C7.32 3.33 8.64 3.66 10 4 C8.35 4 6.7 4 5 4 C4.67 5.98 4.34 7.96 4 10 C1.03 10 -1.94 10 -5 10 C-5 9.67 -5 9.34 -5 9 C-2.36 9 0.28 9 3 9 C3 6.36 3 3.72 3 1 C2.01 0.67 1.02 0.34 0 0 Z " fill="#530610" transform="translate(524,237)"/>
<path d="M0 0 C0.66 0 1.32 0 2 0 C1.34 1.98 0.68 3.96 0 6 C-0.66 6 -1.32 6 -2 6 C-2 6.66 -2 7.32 -2 8 C-2.99 8 -3.98 8 -5 8 C-5.66 6.02 -6.32 4.04 -7 2 C-6.34 2 -5.68 2 -5 2 C-5 2.66 -5 3.32 -5 4 C-1.87802522 2.6910428 -1.87802522 2.6910428 0 0 Z " fill="#2E0004" transform="translate(450,185)"/>
<path d="M0 0 C0.99 0 1.98 0 3 0 C2.773125 1.0725 2.54625 2.145 2.3125 3.25 C1.64224175 6.92978576 1.64224175 6.92978576 3.4375 9.4375 C3.953125 9.953125 4.46875 10.46875 5 11 C4.67 11.66 4.34 12.32 4 13 C0.61053312 10.74035542 0.14663284 9.79270862 -1 6 C-1.1875 3.25 -1.1875 3.25 -1 1 C-0.67 0.67 -0.34 0.34 0 0 Z " fill="#73091A" transform="translate(312,268)"/>
<path d="M0 0 C0.66 0 1.32 0 2 0 C2 0.66 2 1.32 2 2 C2.66 2 3.32 2 4 2 C5.0625 4.375 5.0625 4.375 6 7 C5.67 7.66 5.34 8.32 5 9 C3.68 8.67 2.36 8.34 1 8 C0.67 5.36 0.34 2.72 0 0 Z " fill="#630415" transform="translate(477,265)"/>
<path d="M0 0 C1.485 0.99 1.485 0.99 3 2 C5.73872955 2.45772063 5.73872955 2.45772063 8.6875 2.625 C9.68136719 2.69976562 10.67523437 2.77453125 11.69921875 2.8515625 C12.45847656 2.90054687 13.21773437 2.94953125 14 3 C14 2.34 14 1.68 14 1 C13.34 0.67 12.68 0.34 12 0 C13.32 0 14.64 0 16 0 C16 1.32 16 2.64 16 4 C11.05 4 6.1 4 1 4 C0.67 2.68 0.34 1.36 0 0 Z " fill="#670818" transform="translate(561,254)"/>
<path d="M0 0 C2.16874252 0.50603992 3.99967627 0.99983813 6 2 C5.67 3.32 5.34 4.64 5 6 C3.02 5.34 1.04 4.68 -1 4 C-0.67 2.68 -0.34 1.36 0 0 Z " fill="#870114" transform="translate(388,396)"/>
<path d="M0 0 C0.66 0 1.32 0 2 0 C1.34 2.64 0.68 5.28 0 8 C-0.33 6.68 -0.66 5.36 -1 4 C-5.29 4 -9.58 4 -14 4 C-14 3.67 -14 3.34 -14 3 C-13.15695312 2.95101562 -12.31390625 2.90203125 -11.4453125 2.8515625 C-10.34960938 2.77679688 -9.25390625 2.70203125 -8.125 2.625 C-6.48917969 2.52058594 -6.48917969 2.52058594 -4.8203125 2.4140625 C-1.86953526 2.26746509 -1.86953526 2.26746509 0 0 Z " fill="#320005" transform="translate(506,198)"/>
<path d="M0 0 C0.33 1.32 0.66 2.64 1 4 C0.34 4 -0.32 4 -1 4 C-1.33 5.32 -1.66 6.64 -2 8 C-2.99 8 -3.98 8 -5 8 C-5.33 6.02 -5.66 4.04 -6 2 C-5.67 2.66 -5.34 3.32 -5 4 C-4.01 4 -3.02 4 -2 4 C-2 3.34 -2 2.68 -2 2 C-1.34 2 -0.68 2 0 2 C0 1.34 0 0.68 0 0 Z " fill="#720314" transform="translate(450,189)"/>
<path d="M0 0 C0.33 1.32 0.66 2.64 1 4 C0.34 4 -0.32 4 -1 4 C-1.0825 4.7425 -1.165 5.485 -1.25 6.25 C-2.1396946 9.51221354 -3.48503749 10.80954878 -6 13 C-6 9.32965255 -4.9247108 7.9000569 -3 4.8125 C-2.443125 3.91144531 -1.88625 3.01039062 -1.3125 2.08203125 C-0.6628125 1.05142578 -0.6628125 1.05142578 0 0 Z " fill="#71091B" transform="translate(450,49)"/>
<path d="M0 0 C0.66 0.33 1.32 0.66 2 1 C1.49396008 3.16874252 1.00016187 4.99967627 0 7 C-0.99 6.67 -1.98 6.34 -3 6 C-3.6875 3.9375 -3.6875 3.9375 -4 2 C-2.125 0.9375 -2.125 0.9375 0 0 Z " fill="#890116" transform="translate(385,386)"/>
<path d="M0 0 C0.99 0.33 1.98 0.66 3 1 C3.984375 3.1796875 3.984375 3.1796875 4.75 5.875 C5.01296875 6.75929687 5.2759375 7.64359375 5.546875 8.5546875 C6 11 6 11 5 14 C2.84023816 11.84023816 2.58429445 11.00568118 1.9375 8.125 C1.78152344 7.44695312 1.62554687 6.76890625 1.46484375 6.0703125 C1.31144531 5.38710937 1.15804688 4.70390625 1 4 C0.66992631 2.66585599 0.33754883 1.33227237 0 0 Z " fill="#6D0416" transform="translate(419,218)"/>
<path d="M0 0 C1.4540625 0.0309375 1.4540625 0.0309375 2.9375 0.0625 C2.9375 0.3925 2.9375 0.7225 2.9375 1.0625 C1.2875 1.0625 -0.3625 1.0625 -2.0625 1.0625 C-1.87421228 3.50730079 -1.87421228 3.50730079 -1.0625 6.0625 C0.90508273 7.42270151 0.90508273 7.42270151 2.9375 8.0625 C0.93795254 8.10504356 -1.06291636 8.10330783 -3.0625 8.0625 C-4.0625 7.0625 -4.0625 7.0625 -4.1875 4.0625 C-4.02164894 0.08207447 -4.02164894 0.08207447 0 0 Z " fill="#3B0107" transform="translate(497.0625,191.9375)"/>
<path d="M0 0 C1.65 0 3.3 0 5 0 C5 1.65 5 3.3 5 5 C3.35 4.67 1.7 4.34 0 4 C0 2.68 0 1.36 0 0 Z " fill="#060000" transform="translate(517,203)"/>
<path d="M0 0 C0.33 0.66 0.66 1.32 1 2 C0.328125 3.83984375 0.328125 3.83984375 -0.75 5.9375 C-1.26820313 6.97197266 -1.26820313 6.97197266 -1.796875 8.02734375 C-3.00394966 10.00647591 -4.29707383 11.43898435 -6 13 C-6.66 12.67 -7.32 12.34 -8 12 C-5.36 8.04 -2.72 4.08 0 0 Z " fill="#700A1E" transform="translate(395,133)"/>
<path d="M0 0 C0.33 0.66 0.66 1.32 1 2 C0.0126546 3.67419438 -0.98812105 5.34051852 -2 7 C-2 7.99 -2 8.98 -2 10 C-3.65 10.66 -5.3 11.32 -7 12 C-5.44298069 7.32894208 -2.91552627 3.91294315 0 0 Z " fill="#170000" transform="translate(558,364)"/>
<path d="M0 0 C0.66 0 1.32 0 2 0 C5.51647805 3.75899378 8.66951441 7.71223057 9 13 C4.76568424 9.39299028 2.5307901 4.85413839 0 0 Z " fill="#170000" transform="translate(579,213)"/>
<path d="M0 0 C3.2626876 3.08632611 6.02235218 5.93483504 8 10 C7.67 10.66 7.34 11.32 7 12 C5.82767315 10.3790787 4.6622923 8.75313167 3.5 7.125 C2.8503125 6.22007812 2.200625 5.31515625 1.53125 4.3828125 C0 2 0 2 0 0 Z " fill="#1B0000" transform="translate(381,376)"/>
<path d="M0 0 C0.66 1.32 1.32 2.64 2 4 C1.01 5.485 1.01 5.485 0 7 C-0.99 6.67 -1.98 6.34 -3 6 C-2.42655063 3.13275314 -2.1385485 2.1385485 0 0 Z " fill="#860015" transform="translate(316,281)"/>
<path d="M0 0 C1 3 1 3 -0.1875 6.0625 C-1.99216457 8.9873012 -2.82880497 9.90648447 -6 11 C-4.54955729 6.89041233 -2.48889248 3.56741255 0 0 Z " fill="#700A1D" transform="translate(421,93)"/>
<path d="M0 0 C0.66 0.99 1.32 1.98 2 3 C-0.31 5.64 -2.62 8.28 -5 11 C-5 7.58678765 -4.33132534 6.60527115 -2.5 3.8125 C-2.0359375 3.09707031 -1.571875 2.38164062 -1.09375 1.64453125 C-0.7328125 1.10183594 -0.371875 0.55914062 0 0 Z " fill="#140000" transform="translate(528,409)"/>
<path d="M0 0 C1.98 0.99 1.98 0.99 4 2 C4 2.66 4 3.32 4 4 C5.98 4.66 7.96 5.32 10 6 C6.98968256 6.93423645 6.13349732 7.04449911 3 6 C3 5.34 3 4.68 3 4 C2.34 4 1.68 4 1 4 C0.67 2.68 0.34 1.36 0 0 Z " fill="#220002" transform="translate(475,325)"/>
<path d="M0 0 C-0.33 1.32 -0.66 2.64 -1 4 C-3.31 4.33 -5.62 4.66 -8 5 C-7.01 4.67 -6.02 4.34 -5 4 C-5 3.01 -5 2.02 -5 1 C-3 0 -3 0 0 0 Z " fill="#270004" transform="translate(417,327)"/>
<path d="M0 0 C0.33 0.66 0.66 1.32 1 2 C0.109375 3.875 0.109375 3.875 -1.25 6 C-1.90742188 7.051875 -1.90742188 7.051875 -2.578125 8.125 C-4 10 -4 10 -7 12 C-5.44298069 7.32894208 -2.91552627 3.91294315 0 0 Z " fill="#720A1B" transform="translate(317,251)"/>
<path d="M0 0 C1.62463842 -0.05395478 3.24978541 -0.09277195 4.875 -0.125 C5.77992188 -0.14820313 6.68484375 -0.17140625 7.6171875 -0.1953125 C10 0 10 0 12 2 C9.03 1.67 6.06 1.34 3 1 C3 1.66 3 2.32 3 3 C2.01 3 1.02 3 0 3 C0 2.01 0 1.02 0 0 Z " fill="#690718" transform="translate(487,237)"/>
<path d="M0 0 C0.33 0.66 0.66 1.32 1 2 C-0.97764782 6.06516496 -3.7373124 8.91367389 -7 12 C-5.44298069 7.32894208 -2.91552627 3.91294315 0 0 Z " fill="#6D0B1B" transform="translate(340,216)"/>
<path d="M0 0 C0.33 0.66 0.66 1.32 1 2 C0.00390625 4.1640625 0.00390625 4.1640625 -1.4375 6.625 C-1.91058594 7.44226563 -2.38367188 8.25953125 -2.87109375 9.1015625 C-3.24363281 9.72804687 -3.61617188 10.35453125 -4 11 C-4.66 11 -5.32 11 -6 11 C-4.54955729 6.89041233 -2.48889248 3.56741255 0 0 Z " fill="#710A1D" transform="translate(371,169)"/>
<path d="M0 0 C0.8125 1.6875 0.8125 1.6875 1 4 C-1.4375 6.75 -1.4375 6.75 -4 9 C-4 5.00095031 -2.27413033 3.19799578 0 0 Z " fill="#710A1A" transform="translate(596,292)"/>
<path d="M0 0 C0.33 0 0.66 0 1 0 C1.3125 2.3125 1.3125 2.3125 1 5 C-1.5 6.8125 -1.5 6.8125 -4 8 C-2.87548273 5.0280615 -1.77706209 2.66559313 0 0 Z " fill="#73091B" transform="translate(410,110)"/>
<path d="M0 0 C0 3.99904969 -1.72586967 5.80200422 -4 9 C-4.33 7.68 -4.66 6.36 -5 5 C-4.34 5 -3.68 5 -3 5 C-2.87625 4.360625 -2.7525 3.72125 -2.625 3.0625 C-2.41875 2.381875 -2.2125 1.70125 -2 1 C-1.34 0.67 -0.68 0.34 0 0 Z " fill="#180000" transform="translate(424,87)"/>
<path d="M0 0 C1.37562854 1.28965176 2.70766393 2.62689293 4 4 C4 4.66 4 5.32 4 6 C2.68 5.34 1.36 4.68 0 4 C-0.99 4.66 -1.98 5.32 -3 6 C-1.125 1.125 -1.125 1.125 0 0 Z " fill="#190000" transform="translate(460,49)"/>
<path d="M0 0 C1.32 1.32 2.64 2.64 4 4 C3.67 4.99 3.34 5.98 3 7 C1.68 6.67 0.36 6.34 -1 6 C-0.67 4.02 -0.34 2.04 0 0 Z " fill="#7C061A" transform="translate(438,464)"/>
<path d="M0 0 C0 3.99904969 -1.72586967 5.80200422 -4 9 C-5.24546405 6.50907189 -4.7767578 5.58919267 -4 3 C-3.34 3 -2.68 3 -2 3 C-2 2.34 -2 1.68 -2 1 C-1.34 0.67 -0.68 0.34 0 0 Z " fill="#1A0000" transform="translate(432,75)"/>
<path d="M0 0 C0.33 1.32 0.66 2.64 1 4 C0.01 4.33 -0.98 4.66 -2 5 C-3.20882096 7.00016466 -3.20882096 7.00016466 -4 9 C-4 5.00095031 -2.27413033 3.19799578 0 0 Z " fill="#170000" transform="translate(550,376)"/>
<path d="M0 0 C0.33 1.32 0.66 2.64 1 4 C0.01 4.33 -0.98 4.66 -2 5 C-3.20882096 7.00016466 -3.20882096 7.00016466 -4 9 C-4 5.00095031 -2.27413033 3.19799578 0 0 Z " fill="#6F0B1C" transform="translate(346,207)"/>
<path d="M0 0 C2.475 0.495 2.475 0.495 5 1 C5 1.66 5 2.32 5 3 C5.66 3.33 6.32 3.66 7 4 C6.01 4 5.02 4 4 4 C4 3.34 4 2.68 4 2 C3.34 2 2.68 2 2 2 C2 2.66 2 3.32 2 4 C1.34 4 0.68 4 0 4 C0 2.68 0 1.36 0 0 Z " fill="#1F0002" transform="translate(507,207)"/>
<path d="M0 0 C0 2.31 0 4.62 0 7 C-0.99 6.67 -1.98 6.34 -3 6 C-3 4.35 -3 2.7 -3 1 C-1 0 -1 0 0 0 Z " fill="#7F0317" transform="translate(492,192)"/>
<path d="M0 0 C0 3.99904969 -1.72586967 5.80200422 -4 9 C-4.33 7.68 -4.66 6.36 -5 5 C-4.01 4.67 -3.02 4.34 -2 4 C-0.79117904 1.99983534 -0.79117904 1.99983534 0 0 Z " fill="#190000" transform="translate(385,146)"/>
<path d="M0 0 C0.33 1.32 0.66 2.64 1 4 C0.01 4.33 -0.98 4.66 -2 5 C-3.20882096 7.00016466 -3.20882096 7.00016466 -4 9 C-4 5.00095031 -2.27413033 3.19799578 0 0 Z " fill="#6E0A1C" transform="translate(428,83)"/>
<path d="M0 0 C0.33 1.32 0.66 2.64 1 4 C0.01 4.33 -0.98 4.66 -2 5 C-3.20882096 7.00016466 -3.20882096 7.00016466 -4 9 C-4 5.00095031 -2.27413033 3.19799578 0 0 Z " fill="#6E0B1C" transform="translate(434,74)"/>
</svg>
